HIERARCHY
ROOT joint_0
{
	OFFSET 0.000000 0.000000 0.000000
	CHANNELS 6 Xposition Yposition Zposition Zrotation Yrotation Xrotation 
	JOINT joint_1
	{
		OFFSET 1.363060 -1.794630 0.839290
		CHANNELS 3 Zrotation Yrotation Xrotation
		JOINT joint_2
		{
			OFFSET 2.448110 -6.726130 0.000000
			CHANNELS 3 Zrotation Yrotation Xrotation
			JOINT joint_3
			{
				OFFSET 2.562200 -7.039590 0.000000
				CHANNELS 3 Zrotation Yrotation Xrotation
				JOINT joint_4
				{
					OFFSET 0.157640 -0.433110 2.322550
					CHANNELS 3 Zrotation Yrotation Xrotation
					End Site
					{
						OFFSET 0.000000 0.000000 0.000000
					}
				}
			}
		}
	}
	JOINT joint_5
	{
		OFFSET -1.305520 -1.794630 0.839290
		CHANNELS 3 Zrotation Yrotation Xrotation
		JOINT joint_6
		{
			OFFSET -2.542530 -6.985550 0.000000
			CHANNELS 3 Zrotation Yrotation Xrotation
			JOINT joint_7
			{
				OFFSET -2.568260 -7.056230 0.000000
				CHANNELS 3 Zrotation Yrotation Xrotation
				JOINT joint_8
				{
					OFFSET -0.164730 -0.452590 2.363150
					CHANNELS 3 Zrotation Yrotation Xrotation
					End Site
					{
						OFFSET 0.000000 0.000000 0.000000
					}
				}
			}
		}
	}
	JOINT joint_9
	{
		OFFSET 0.028270 2.035590 -0.193380
		CHANNELS 3 Zrotation Yrotation Xrotation
		JOINT joint_10
		{
			OFFSET 0.056720 2.048850 -0.042750
			CHANNELS 3 Zrotation Yrotation Xrotation
			JOINT joint_11
			{
				OFFSET -0.054170 1.746240 0.172020
				CHANNELS 3 Zrotation Yrotation Xrotation
				JOINT joint_12
				{
					OFFSET 0.104070 1.761360 -0.123970
					CHANNELS 3 Zrotation Yrotation Xrotation
					End Site
					{
						OFFSET 0.000000 0.000000 0.000000
					}
				}
			}
			JOINT joint_13
			{
				OFFSET 3.362410 1.200890 -0.311210
				CHANNELS 3 Zrotation Yrotation Xrotation
				JOINT joint_14
				{
					OFFSET 4.983000 -0.000000 -0.000000
					CHANNELS 3 Zrotation Yrotation Xrotation
					JOINT joint_15
					{
						OFFSET 3.483560 -0.000000 -0.000000
						CHANNELS 3 Zrotation Yrotation Xrotation
						JOINT joint_16
						{
							OFFSET 0.000000 0.000000 0.000000
							CHANNELS 3 Zrotation Yrotation Xrotation
							End Site
							{
								OFFSET 0.000000 0.000000 0.000000
							}
						}
					}
				}
			}
			JOINT joint_17
			{
				OFFSET -3.136600 1.374050 -0.404650
				CHANNELS 3 Zrotation Yrotation Xrotation
				JOINT joint_18
				{
					OFFSET -5.241900 -0.000000 -0.000000
					CHANNELS 3 Zrotation Yrotation Xrotation
					JOINT joint_19
					{
						OFFSET -3.444170 -0.000000 -0.000000
						CHANNELS 3 Zrotation Yrotation Xrotation
						JOINT joint_20
						{
							OFFSET 0.000000 0.000000 0.000000
							CHANNELS 3 Zrotation Yrotation Xrotation
							End Site
							{
								OFFSET 0.000000 0.000000 0.000000
							}
						}
					}
				}
			}
		}
	}
}
MOTION
Frames: 12
Frame Time: 0.031667
0.383414 16.863363 -1.810240 -1.405944 0.763194 0.967095 -18.263359 -0.006771 -3.276968 -0.624190 1.404060 10.372758 -5.301396 1.606225 -1.695291 0.996037 -2.938965 -9.148194 21.285875 -0.302413 2.383642 -0.172832 -1.240728 2.065875 1.125436 -0.443240 -9.283676 0.197791 -0.162983 -0.580027 3.037909 -1.223107 -9.288156 -0.896124 -0.192336 9.902384 0.896232 -0.821289 17.862289 2.359862 -2.855525 7.040089 -21.400125 -1.838745 5.695029 19.377834 -15.583760 -14.281730 4.788544 -0.130031 -0.094541 -6.731599 -0.003623 -0.015836 16.954029 3.069389 -0.083918 -32.605773 24.088260 -30.181551 -4.642424 -1.931438 0.301798 6.704404 -0.027377 0.000206 
0.383318 16.859610 -1.817252 -1.379972 0.747692 0.969901 -17.460368 1.420790 -3.928575 -1.362277 0.742114 8.706584 -3.295614 -0.173112 -1.906609 1.258195 -3.033576 -9.460642 20.137436 -0.638527 5.492261 -2.262570 -1.621807 -0.957726 1.278734 -0.014391 -7.861159 0.195284 -0.426138 0.055958 -0.267434 0.193619 -10.140102 0.098022 0.054148 15.834848 3.914839 -2.198125 17.716819 2.359135 -3.039247 7.743675 -18.877652 -0.837215 3.358688 17.958739 -14.207519 -13.222421 6.630155 0.495055 -0.239848 -6.684126 0.000208 -0.013914 15.092746 2.699132 -0.455868 -33.796336 20.616544 -30.287436 -6.955759 -1.301032 0.611868 6.651977 -0.028599 -0.003746 
0.359751 16.856756 -1.922252 -1.278687 2.231196 1.264987 -14.529810 2.748879 -1.560529 -2.273932 0.129578 9.853556 -3.639455 -1.316680 -1.811227 1.392295 -3.709877 -11.455098 18.771535 -1.759252 4.103721 -3.258903 -1.748886 1.105311 0.891690 1.944066 -9.610891 0.412402 -0.518972 0.317960 1.878003 -0.268984 -14.606652 0.759581 -0.258144 16.224628 3.775498 -3.606532 17.408318 2.594185 -3.385330 7.896459 -21.047587 -1.228113 6.321667 20.694717 -13.082115 -16.143762 4.916577 1.284724 0.670116 -6.649526 0.005736 -0.008212 12.482557 1.610204 -0.400290 -38.259786 21.101323 -31.921265 -4.291861 -1.702391 -1.917918 6.616528 -0.035108 -0.011295 
0.356616 16.846096 -1.948889 -0.875224 1.924792 0.723241 -18.940111 3.846903 -1.637611 -2.281884 0.029311 6.074932 -5.106478 0.378165 -1.873502 1.357591 -3.935831 -12.141032 17.279042 -3.358608 5.556771 -6.277889 -1.219446 2.384412 0.349495 3.580021 -7.471907 0.711691 -0.995629 1.470730 0.769562 -0.875078 -14.727718 2.894388 -1.655453 13.327884 2.396084 -1.797446 18.690606 4.480661 -3.551465 7.630255 -17.208474 -0.090395 3.709558 15.711689 -11.637397 -14.876145 6.235938 0.442301 -0.398199 -6.602033 0.009395 0.004024 12.891115 0.979409 11.104496 -35.833867 19.684431 -32.787906 -7.964204 -3.171824 -2.461341 6.571312 -0.030447 -0.014739 
0.352688 16.855104 -1.909324 -1.206381 1.764283 0.913657 -28.155228 6.469664 -8.007771 -0.736199 -1.064604 7.396986 -9.486214 2.910858 2.694430 1.184749 -3.754318 -11.519373 21.328797 -2.362666 7.789257 -3.136282 -1.799195 -0.214789 0.911937 5.071680 -9.688337 0.834911 -1.623090 3.188058 5.466441 2.438599 -13.364929 5.743764 0.445730 15.556075 0.565383 -1.596494 18.677251 6.815076 -4.060493 7.440786 -10.313235 0.108499 0.658816 14.893270 -10.856066 -20.833212 9.244802 0.707397 -1.521136 -6.514996 0.014443 0.010927 2.527252 2.703699 -17.494787 -34.614483 16.899478 -33.692859 -9.086832 -3.830519 -1.654472 6.471137 -0.033860 -0.029595 
0.353326 16.855556 -1.907733 -1.240121 1.724975 0.923689 -32.045981 3.806898 1.307679 -2.765541 -2.264314 3.495236 7.388643 0.228155 -3.387420 0.902328 -3.511397 -10.915795 30.521838 -3.169405 -2.605583 4.108854 -2.146101 -0.236438 4.339753 4.643207 -1.286468 0.702925 -2.490837 5.796051 -1.307075 -1.318287 -11.713180 -1.068807 2.854737 14.376139 -1.653509 -2.749325 22.039115 7.453119 -4.403894 6.989619 -18.856436 0.925898 -9.571335 11.840597 -10.000006 -12.988424 6.907134 -0.459820 -0.869483 -6.428525 0.019356 0.020577 21.158022 2.912298 1.451842 -33.734922 16.979493 -31.639458 -10.144819 -3.460633 -5.021934 6.381444 -0.037520 -0.037948 
0.353497 16.856457 -1.906577 -1.280150 1.729442 0.936999 -36.449045 4.667707 0.854848 -2.840116 -4.294945 4.548403 3.328593 -0.005786 -1.153845 0.730885 -2.766204 -8.958650 33.208294 -5.117357 -4.244466 -4.107275 -1.805292 3.044179 5.369214 3.249390 2.692640 0.636706 -2.903391 6.783846 4.675222 4.405855 -11.617078 0.292441 0.068755 18.995518 2.977334 -5.439144 23.631891 6.712587 -4.533993 6.290539 -17.688972 -0.085973 -9.284908 11.958044 -9.570335 -14.644170 7.578202 -0.076133 -2.115508 -6.343365 0.020597 0.021639 19.976985 5.134817 -20.464498 -30.462476 18.483303 -36.376877 -11.570907 -4.811160 -2.128323 6.291666 -0.036562 -0.041821 
0.354524 16.854355 -1.908769 -1.262170 1.675628 0.897137 -33.325562 4.686535 1.410546 -4.243570 -2.326778 1.921805 14.330212 1.013558 7.088974 0.486128 -2.149370 -7.206676 28.579812 -4.121789 2.178920 1.807549 1.809768 2.446850 -1.478227 2.445020 -6.268612 0.905179 -2.361787 5.183822 -0.252090 3.141123 -17.015700 0.235448 4.338118 16.665419 -2.237204 -0.967748 24.460241 6.619959 -4.288513 6.080184 -28.652244 2.489818 2.873853 14.596618 -6.366971 -15.592058 9.294662 -0.204242 2.570279 -6.338057 0.016086 0.012930 33.183132 5.254898 -19.395418 -30.721556 12.981587 -32.168900 -10.791805 -4.921101 -2.392344 6.294970 -0.030373 -0.033035 
0.355215 16.853754 -1.910480 -1.258266 1.650171 0.888190 -26.241961 4.579094 -1.106211 -3.594421 -1.227959 0.899333 -9.077794 1.528853 -6.059381 0.446730 -1.756472 -6.048988 24.930838 -3.102902 4.019078 -3.471839 -0.439729 2.063128 0.395307 4.176985 -10.374505 1.000888 -1.591565 3.179585 -1.241897 2.823818 -11.409622 -0.031331 -0.251736 18.907243 -2.478096 -1.109317 24.063313 7.070371 -4.351324 7.119197 -13.838151 2.263705 -17.733249 10.706673 -9.650898 -11.758789 9.340495 0.486534 1.104705 -6.356989 0.007373 0.004205 -6.609474 4.091056 5.694001 -32.094215 18.303194 -36.647141 -14.715451 -5.301275 5.386187 6.337330 -0.021340 -0.017570 
0.354847 16.854204 -1.912898 -1.277922 1.673580 0.855423 -26.508675 5.274788 -4.343397 -2.892017 -2.064054 2.361615 5.056327 0.587632 -0.115014 0.534439 -1.041260 -4.046254 23.212213 -3.941811 5.013857 0.253602 1.251267 -1.945011 1.672194 1.790785 -9.004570 0.878368 -0.897387 1.253402 2.155348 3.904012 -10.267684 -0.498115 1.083912 19.835737 0.723729 -1.638207 23.225107 7.163763 -4.416983 7.636523 -13.960408 1.204427 -4.024044 10.782616 -8.461850 -14.962663 11.084785 2.055570 -1.725538 -6.388390 -0.000576 -0.013415 6.687938 3.437334 -3.262653 -36.033722 18.108252 -35.895369 -10.851730 -3.395432 2.653618 6.375583 -0.016787 -0.012104 
0.355467 16.859909 -1.895105 -1.494062 1.709578 1.028775 -22.621284 6.957133 3.107852 -2.817034 0.222167 -1.576164 -8.582172 1.262350 -1.540057 0.487566 -0.617243 -2.657964 23.590345 -4.510686 3.355179 -0.571665 1.224246 -1.124586 3.227302 2.802489 -3.936098 0.724740 -0.178496 -0.754505 4.592361 2.195052 -14.637997 0.997805 2.235447 19.665757 2.290168 -2.881752 27.540619 7.022263 -4.337853 7.573002 -12.286213 0.284667 -2.018125 8.731002 -6.287181 -13.745835 4.474604 2.435844 1.078990 -6.417469 -0.003426 -0.015204 7.638482 2.757371 -1.605993 -32.469739 16.108262 -35.359005 -12.993338 -5.532808 0.901948 6.406411 -0.014189 -0.008997 
0.355698 16.858559 -1.896486 -1.490068 1.658553 0.979278 -21.089502 4.879302 6.559418 -5.606643 -5.169877 -1.016202 -2.113851 1.710100 -3.250556 0.390223 -0.170319 -1.158399 27.248768 -3.912079 8.136033 -1.689321 1.491987 -4.244371 0.818583 4.490899 -7.639569 0.623613 0.003477 -1.153401 2.398415 2.178258 -15.619084 -2.171346 -0.410115 17.917504 2.122999 -2.297265 25.448530 6.508554 -4.385156 7.413434 -14.726581 -1.900582 -3.656037 13.376607 -6.840214 -16.837805 6.252476 4.347462 0.383925 -6.430525 0.000306 -0.016726 7.387662 2.711448 -7.225580 -34.377005 15.528558 -33.773926 -14.450216 -6.411210 2.543666 6.415282 -0.016922 -0.009035 
